# xmcd
#
# Track frame offsets:
#	150
#	17680
#	33980
#	49987
#	66807
#	79542
#	95800
#	110915
#	124130
#	142807
#	156140
#	167597
#
# Disc length: 2503 seconds
#
# Revision: 1
# Processed by: cddbd v1.5.2PL0 Copyright (c) Steve Scherf et al.
# Submitted via: audiograbber 1.83.01
#
DISCID=9c09c50c
DTITLE=Jonny Hill - Zorn und Zärtlichkeit
DYEAR=1900
DGENRE=Country
TTITLE0=Deine Augen
TTITLE1=Wenn Du bei mir bist
TTITLE2=Für immer bei Dir
TTITLE3=Weit jenseits der Liebe
TTITLE4=Überall
TTITLE5=Zorn und Zärtlichkeit
TTITLE6=Heute schon gelebt?
TTITLE7=Ich bin wieder zu Haus
TTITLE8=Wenn da nicht die Sehnsucht wär
TTITLE9=Ich bin einer so wie Du
TTITLE10=Mach´s gut
TTITLE11=Tief im Meer
EXTD=
EXTT0=
EXTT1=
EXTT2=
EXTT3=
EXTT4=
EXTT5=
EXTT6=
EXTT7=
EXTT8=
EXTT9=
EXTT10=
EXTT11=
PLAYORDER=
